<svg xmlns="http://www.w3.org/2000/svg" version="1.1" xmlns:xlink="http://www.w3.org/1999/xlink" width="512" height="512" x="0" y="0" viewBox="0 0 462 462" style="enable-background:new 0 0 512 512" xml:space="preserve" class=""><g><path d="M397.35 132.52 287.76 22.93a9.61 9.61 0 0 0-7.07-2.93h-179a40 40 0 0 0-40 40v342a40 40 0 0 0 40 40h258.59a40 40 0 0 0 40-40V139.59a10.07 10.07 0 0 0-2.93-7.07zm-31.21-2.93h-60.45a15 15 0 0 1-15-15V54.14zM360.28 422H101.72a20 20 0 0 1-20-20V60a20 20 0 0 1 20-20h169v74.59a35 35 0 0 0 35 35h74.59V402a20 20 0 0 1-20.03 20z" fill="#000000" opacity="1" data-original="#000000" class=""></path><path d="M190.83 174a40.5 40.5 0 1 0-40.5-40.5 40.55 40.55 0 0 0 40.5 40.5zm0-61a20.5 20.5 0 1 1-20.5 20.5 20.53 20.53 0 0 1 20.5-20.5zM132.22 251.5a10 10 0 0 0 10-10v-6.1a37.11 37.11 0 0 1 37.06-37.06h23.1a37.11 37.11 0 0 1 37.06 37.06v6.1a10 10 0 0 0 20 0v-6.1a57.13 57.13 0 0 0-57.06-57.06h-23.1a57.13 57.13 0 0 0-57.06 57.06v6.1a10 10 0 0 0 10 10zM126.65 324.67H248a10 10 0 0 0 0-20H126.65a10 10 0 1 0 0 20zM316.65 357.33h-190a10 10 0 1 0 0 20h190a10 10 0 0 0 0-20z" fill="#000000" opacity="1" data-original="#000000" class=""></path></g></svg>